<?xml version="1.0" encoding="UTF-8"?>
<svg width="424px" height="421px" viewBox="0 0 424 421" version="1.1" xmlns="http://www.w3.org/2000/svg" xmlns:xlink="http://www.w3.org/1999/xlink">
    <!-- Generator: Sketch 52.1 (67048) - http://www.bohemiancoding.com/sketch -->
    <title>Group</title>
    <desc>Created with Sketch.</desc>
    <g id="Page-1" stroke="none" stroke-width="1" fill="none" fill-rule="evenodd">
        <g id="fabric" fill="#333333">
            <g id="Group" transform="translate(212.000000, 210.500000) scale(-1, 1) rotate(-180.000000) translate(-212.000000, -210.500000) ">
                <path d="M133.7,419.2 C131.3,416.6 106,363.3 106,360.9 C106,356.7 108.4,354.7 119.6,349.4 C131.8,343.6 136.6,342.8 139.4,345.8 C141.9,348.7 167,401.7 167,404.3 C167,408.3 164.2,410.8 153.4,415.9 C141.9,421.4 136.5,422.3 133.7,419.2 Z" id="Path"></path>
                <path d="M187.7,395.9 C185.3,394.5 175,373.5 175,369.9 C175,363.7 171.4,365.8 229,338.5 C250.6,328.3 267.6,320.7 269.2,320.8 C274,320.9 275.5,322.6 281.4,334.9 C287.3,347.1 287.7,349.3 284.8,353.2 C283,355.6 195.2,397 192.1,397 C190.7,397 188.7,396.5 187.7,395.9 Z" id="Path"></path>
                <path d="M305.6,337.8 C302.2,334.6 278,283.6 278,279.5 C278,274.7 280.2,272.9 292.7,267 C304.6,261.5 308.1,261.1 311.2,264.8 C312,265.7 318.4,278.4 325.4,293 C338.6,320.8 339.9,325 336.2,328.3 C333.4,330.9 313.4,340 310.6,340 C309.2,340 307,339 305.6,337.8 Z" id="Path"></path>
                <path d="M95,335.7 C92.5,334.5 84.5,320 81.9,311.9 C79.7,304.9 80.6,304.1 111.9,289.3 C127.4,282 141.2,276 142.6,276 C144,276 146,276.5 147.1,277.1 C149.4,278.3 160,300.1 160,303.6 C160,304.9 159,307 157.8,308.4 C155.5,310.9 101.8,337 98.9,337 C98.2,337 96.4,336.4 95,335.7 Z" id="Path"></path>
                <path d="M194.8,327.3 C192.3,324.4 151,237.5 151,235.1 C151,230.9 153.1,228.9 164,223.5 C175.9,217.5 181.4,216.5 184.3,219.8 C186.9,222.7 228,309.4 228,312.1 C228,316.4 225.2,318.9 214.3,324 C202.9,329.4 197.5,330.3 194.8,327.3 Z" id="Path"></path>
                <path d="M359.2,314.9 C357.5,314.3 355.3,310.7 351.4,302.5 C345.7,290.3 344.9,286.5 347.8,283.2 C350,280.6 403.9,255 407.1,255 C411.4,255 413.9,257.9 419,268.7 C424.4,280.1 425.3,285.5 422.3,288.2 C419.7,290.5 365.4,316 363.3,315.9 C362.3,315.9 360.5,315.5 359.2,314.9 Z" id="Path"></path>
                <path d="M69.1,283.3 C66,280.8 24.7,194.3 24.6,190.3 C24.6,188.6 25.3,186.4 26.1,185.4 C28.1,182.9 49,173 52.1,173 C53.6,173 55.7,173.8 56.9,174.8 C58,175.7 68.4,196.2 80,220.3 C101.9,266.1 103.2,269.7 99.3,273.2 C96.5,275.6 76,285 73.5,285 C72.2,285 70.3,284.2 69.1,283.3 Z" id="Path"></path>
                <path d="M231.8,269.9 C229.6,268.7 219,246.6 219,243.4 C219,242.1 220,240 221.3,238.6 C223.4,236.2 311.1,194 313.8,194 C318,194 320.8,197.2 325.8,207.8 C331.6,220.1 332.3,224.5 328.8,227.7 C325.1,231 239.7,271 236.4,271 C234.8,271 232.7,270.5 231.8,269.9 Z" id="Path"></path>
                <path d="M366.7,245.8 C363.3,242.6 322.7,157.4 322.6,153.3 C322.6,151.6 323.3,149.4 324,148.4 C325.9,146.2 347.6,136 350.5,136 C351.8,136 353.7,136.8 354.9,137.8 C357.9,140.3 399.3,226.7 399.3,230.7 C399.4,232.4 398.7,234.6 398,235.6 C396,238 374.8,248 371.6,248 C370.2,248 368,247 366.7,245.8 Z" id="Path"></path>
                <path d="M104.5,224.3 C101.7,221.6 93,202 93,198.5 C93,196.5 93.8,194.6 95.3,193.3 C98.6,190.3 184.2,150 187.2,150 C188.7,150 190.6,150.3 191.5,150.6 C193.5,151.4 205,174.3 205,177.6 C205,178.9 204,181 202.8,182.4 C201.4,183.8 182.2,193.5 157,205.4 C111.8,226.8 108.2,228.1 104.5,224.3 Z" id="Path"></path>
                <path d="M239.7,201.3 C236.6,197.8 196,111.7 196,108.5 C196,104.3 198.5,102.2 210.4,96.6 C221,91.7 225.6,91 228.8,93.8 C231.2,95.9 273,183.1 273,186.1 C273,190.2 270.7,192.2 259.8,197.6 C247.8,203.4 242.6,204.4 239.7,201.3 Z" id="Path"></path>
                <path d="M12.2,164.4 C11,163.6 7.7,158.1 5,152.3 C-0.4,140.9 -1.3,135.5 1.8,132.8 C4,130.7 58.4,105 60.4,105 C65.1,105 67.4,107.5 72.7,118.8 C78.4,130.9 79,134.6 76.3,137.8 C74,140.4 20.1,166 16.9,166 C15.5,166 13.4,165.3 12.2,164.4 Z" id="Path"></path>
                <path d="M113.6,156.8 C110.2,153.6 85.9,102.4 85.8,98.2 C85.8,96.4 86.4,94.2 87.2,93.3 C89.1,90.9 110,81 113.2,81 C114.7,81 117,82 118.3,83.3 C121.4,86.1 146,137.6 146,141.2 C146,142.6 145.7,144.6 145.4,145.5 C144.6,147.5 121.7,159 118.4,159 C117.1,159 115,158 113.6,156.8 Z" id="Path"></path>
                <path d="M276.6,143.8 C274.2,142.4 264,120.8 264,117.2 C264,115.7 264.7,113.7 265.4,112.7 C267.1,110.5 322.8,84 325.8,84 C329.5,84 333.2,88.7 338.4,100.2 C343.6,111.5 343.8,114.4 340.1,117.7 C336.7,120.5 284,145 281.2,145 C279.7,145 277.7,144.4 276.6,143.8 Z" id="Path"></path>
                <path d="M152.9,100.2 C149.2,99.8 148.1,98.2 142.1,85.3 C138,76.5 137,73.4 137.5,71.1 C137.8,69.5 138.7,67.7 139.3,67.1 C142.6,64.4 229.6,24 232.2,24 C233.8,24 235.9,24.4 236.8,24.9 C239.3,26.2 249.4,47.6 249.4,51.5 C249.4,53.3 248.8,55.5 248.2,56.3 C247,57.7 163.6,97.8 158,99.7 C156.6,100.2 154.3,100.4 152.9,100.2 Z" id="Path"></path>
                <path d="M284.3,74.6 C281.2,70.7 257,19.4 257,16.8 C257,12.6 259.9,10.1 270.7,5 C282.1,-0.4 287.5,-1.3 290.3,1.8 C292,3.7 316.7,54.9 317.6,58.4 C318.9,63.6 316.6,65.9 304.5,71.6 C291.5,77.7 287.2,78.3 284.3,74.6 Z" id="Path"></path>
            </g>
        </g>
    </g>
</svg>